<svg width="1350" height="404" viewBox="0 0 1350 404" fill="none" xmlns="http://www.w3.org/2000/svg">
<path d="M125.886 339.419C124.672 343.765 121.571 347.278 116.581 349.958C111.59 352.637 106.92 353.297 102.57 351.939C98.2764 350.549 94.7285 347.244 91.9258 342.025L40.8775 246.953C38.0748 241.733 37.2802 236.95 38.4935 232.604C39.7641 228.227 42.8945 224.699 47.8847 222.019C52.8749 219.34 57.5166 218.695 61.8097 220.084C66.1029 221.474 69.6508 224.779 72.4534 229.998L90.7939 264.155L140.266 237.592L121.925 203.435C119.123 198.215 118.328 193.432 119.541 189.086C120.754 184.74 123.856 181.227 128.846 178.547C133.837 175.868 138.478 175.223 142.771 176.612C147.065 178.002 150.612 181.307 153.415 186.526L204.463 281.598C207.266 286.818 208.061 291.601 206.847 295.947C205.634 300.293 202.532 303.806 197.542 306.486C192.552 309.165 187.91 309.81 183.617 308.42C179.324 307.031 175.776 303.726 172.974 298.507L153.94 263.059L104.468 289.623L123.502 325.07C126.304 330.29 127.099 335.073 125.886 339.419Z" fill="black"/>
<path d="M214.151 164.146C212.271 168.4 209.021 171.501 204.401 173.448C199.782 175.395 195.25 175.539 190.806 173.88C186.422 172.195 183.307 169.163 181.461 164.783C179.59 160.344 179.582 155.967 181.437 151.652C183.353 147.312 186.62 144.169 191.239 142.222C195.859 140.275 200.361 140.144 204.744 141.828C209.128 143.513 212.256 146.575 214.127 151.015C215.999 155.454 216.007 159.831 214.151 164.146ZM260.668 274.254C259.122 278.297 255.83 281.38 250.79 283.505C245.751 285.629 241.215 285.845 237.181 284.154C233.208 282.438 230.108 278.94 227.883 273.66L198.79 204.639C196.59 199.419 196.263 194.788 197.809 190.745C199.39 186.617 202.7 183.491 207.739 181.367C212.719 179.268 217.238 179.094 221.296 180.846C225.33 182.537 228.446 185.992 230.646 191.211L259.739 260.233C261.939 265.452 262.249 270.126 260.668 274.254Z" fill="black"/>
<path d="M312.664 297.108C307.653 298.749 303.155 298.613 299.171 296.698C295.249 294.763 292.376 291.011 290.552 285.443L255.987 179.925C254.183 174.418 254.3 169.756 256.337 165.937C258.355 162.056 261.869 159.295 266.88 157.654C271.83 156.032 276.266 156.189 280.188 158.124C284.09 159.997 286.953 163.718 288.777 169.286L289.811 172.442L290.46 172.229C291.052 165.253 293.421 159.202 297.565 154.076C301.751 148.869 307.463 145.079 314.702 142.708C327.447 138.533 338.835 139.838 348.868 146.622C358.962 153.386 366.715 165.028 372.126 181.547C377.517 198.004 378.206 211.925 374.194 223.31C370.182 234.695 361.865 242.455 349.244 246.589C341.882 249.001 334.972 249.449 328.515 247.933C322.038 246.355 316.6 243.033 312.2 237.966L311.55 238.179L323.497 274.651C325.321 280.219 325.194 284.954 323.114 288.855C321.097 292.735 317.614 295.486 312.664 297.108ZM311.971 222.524C316.914 226.111 322.293 226.953 328.109 225.047C333.925 223.142 337.764 219.281 339.627 213.465C341.531 207.566 341.165 200.595 338.531 192.552C335.896 184.509 332.066 178.673 327.041 175.044C322.078 171.395 316.688 170.523 310.872 172.428C305.118 174.312 301.3 178.235 299.416 184.196C297.573 190.074 297.929 197.014 300.481 205.016C303.178 213.039 307.008 218.875 311.971 222.524Z" fill="black"/>
<path d="M429.387 261.838C424.221 262.897 419.768 262.249 416.028 259.892C412.352 257.523 409.925 253.468 408.748 247.728L386.435 138.958C385.271 133.282 385.918 128.663 388.378 125.102C390.824 121.476 394.63 119.134 399.796 118.074C404.898 117.027 409.287 117.689 412.963 120.058C416.627 122.364 419.047 126.387 420.224 132.127L420.891 135.379L421.561 135.242C422.945 128.378 425.987 122.637 430.688 118.017C435.44 113.321 441.547 110.207 449.009 108.676C462.147 105.981 473.313 108.576 482.506 116.459C491.764 124.33 498.139 136.779 501.632 153.807C505.112 170.772 504.211 184.681 498.927 195.534C493.644 206.388 484.497 213.149 471.486 215.818C463.897 217.375 456.981 217.032 450.739 214.79C444.484 212.484 439.46 208.564 435.666 203.028L434.996 203.166L442.709 240.762C443.886 246.502 443.22 251.191 440.71 254.829C438.263 258.455 434.489 260.791 429.387 261.838ZM437.199 187.661C441.701 191.788 446.949 193.237 452.944 192.007C458.939 190.777 463.194 187.379 465.707 181.813C468.271 176.169 468.703 169.202 467.002 160.911C465.301 152.62 462.161 146.386 457.582 142.208C453.067 138.017 447.812 136.536 441.817 137.766C435.886 138.982 431.645 142.444 429.094 148.152C426.594 153.782 426.156 160.717 427.78 168.957C429.544 177.235 432.684 183.47 437.199 187.661Z" fill="black"/>
<path d="M618.309 183.436C609.529 194.037 596.743 200.098 579.949 201.618C563.156 203.139 549.488 199.474 538.947 190.623C528.399 181.708 522.332 168.497 520.747 150.99C519.191 133.808 522.862 119.846 531.76 109.103C540.652 98.2965 553.365 92.1442 569.899 90.6469C586.563 89.1377 600.204 92.8705 610.822 101.845C621.44 110.82 627.531 123.931 629.093 141.178C630.684 158.749 627.09 172.835 618.309 183.436ZM562.843 169.731C566.755 174.671 571.694 176.872 577.659 176.331C583.624 175.791 588.087 172.739 591.048 167.176C594.009 161.613 595.055 154.033 594.186 144.437C593.328 134.971 590.908 127.738 586.926 122.738C583.002 117.668 578.09 115.4 572.189 115.934C566.289 116.468 561.864 119.582 558.915 125.275C555.96 130.903 554.911 138.45 555.769 147.917C556.638 157.513 558.996 164.784 562.843 169.731Z" fill="black"/>
<path d="M741.204 197.681C735.5 197.146 731.129 195.298 728.09 192.137C725.122 188.916 723.07 183.95 721.933 177.239L704.359 76.9205C703.53 71.8079 703.271 67.5986 703.581 64.2928C704.048 59.3016 705.968 55.5582 709.341 53.0624C712.713 50.5666 717.154 49.5769 722.664 50.0931C731.869 50.9554 737.054 56.6724 738.222 67.2441L748.099 150.266L748.877 150.339L776.992 70.0918C778.769 65.0925 781.127 61.5536 784.068 59.4751C787.08 57.3379 790.952 56.491 795.684 56.9343C804.824 57.7906 810.102 63.222 811.518 73.2285L824.327 157.408L825.105 157.48L850.231 77.7383C853.342 67.5674 859.5 62.9132 868.704 63.7755C874.214 64.2918 878.394 66.0892 881.244 69.168C884.094 72.2468 885.286 76.2818 884.818 81.2729C884.527 84.3843 883.49 88.4721 881.707 93.5362L845.68 189.128C843.335 195.316 840.373 199.714 836.794 202.321C833.285 204.869 828.777 205.886 823.267 205.369C817.498 204.829 813.062 202.975 809.958 199.807C806.861 196.574 804.773 191.638 803.695 184.998L790.935 111.809L790.157 111.736L764.025 181.281C761.809 187.482 758.844 191.912 755.129 194.572C751.485 197.173 746.844 198.209 741.204 197.681Z" fill="#FF3366"/>
<path d="M893.374 220.961C888.251 219.71 884.503 217.22 882.13 213.491C879.82 209.777 879.36 205.074 880.75 199.382L906.814 92.6549C908.126 87.279 910.569 83.4523 914.141 81.1748C917.792 78.8495 922.242 78.3278 927.491 79.6097C932.677 80.8762 936.322 83.3749 938.427 87.1057C940.611 90.7887 941.038 95.3498 939.71 100.789L930.42 138.831L931.084 138.993C935.439 132.685 940.816 128.369 947.214 126.044C953.675 123.735 960.827 123.538 968.67 125.453C980.117 128.249 988.098 133.85 992.613 142.258C997.206 150.617 998.004 160.932 995.008 173.201L982.544 224.241C981.154 229.933 978.578 233.894 974.816 236.126C971.055 238.357 966.612 238.847 961.489 237.596C956.366 236.345 952.65 233.862 950.34 230.148C948.03 226.434 947.57 221.731 948.96 216.039L959.641 172.305C961.093 166.36 960.765 161.388 958.659 157.388C956.569 153.326 952.804 150.631 947.365 149.302C941.799 147.943 937.026 148.688 933.047 151.536C929.068 154.384 926.36 158.749 924.923 164.631L914.428 207.606C913.038 213.298 910.431 217.252 906.606 219.468C902.844 221.699 898.433 222.197 893.374 220.961Z" fill="#FF3366"/>
<path d="M1044.35 265.172C1028.32 259.334 1017.47 250.22 1011.8 237.83C1006.15 225.378 1006.29 211.017 1012.21 194.745C1018.12 178.534 1027.26 167.315 1039.65 161.086C1052.12 154.819 1065.97 154.459 1081.2 160.008C1095.94 165.378 1106.25 174.086 1112.11 186.131C1118 198.115 1118.46 210.928 1113.5 224.569C1111.98 228.729 1109.69 231.498 1106.62 232.876C1103.56 234.253 1099.92 234.174 1095.69 232.636L1041.37 212.849L1040.7 214.685C1038.5 220.741 1038.51 226.322 1040.74 231.43C1043.05 236.498 1047.14 240.102 1053.01 242.241C1057.48 243.868 1061.67 244.529 1065.59 244.225C1069.6 243.883 1074.07 242.533 1079.02 240.178C1083.13 238.417 1087.01 238.205 1090.68 239.542C1094.11 240.789 1096.61 242.877 1098.17 245.803C1099.82 248.691 1100.01 251.878 1098.74 255.365C1097.83 257.873 1096.2 260.053 1093.87 261.904C1088.43 266.573 1081.3 269.208 1072.49 269.81C1063.7 270.35 1054.32 268.804 1044.35 265.172ZM1048.58 194.481L1084.92 207.717C1086.64 202.245 1086.43 197.286 1084.31 192.84C1082.19 188.395 1078.56 185.237 1073.42 183.365C1068.4 181.538 1063.58 181.652 1058.95 183.707C1054.38 185.785 1050.93 189.376 1048.58 194.481Z" fill="#FF3366"/>
<path d="M1150.33 306.895C1135.02 299.377 1125.21 289.155 1120.9 276.229C1116.61 263.245 1118.28 248.98 1125.92 233.436C1133.52 217.949 1143.81 207.772 1156.79 202.904C1169.86 198.006 1183.67 199.129 1198.22 206.275C1212.3 213.19 1221.62 222.95 1226.16 235.554C1230.74 248.099 1229.83 260.888 1223.43 273.92C1221.47 277.894 1218.9 280.402 1215.71 281.444C1212.51 282.486 1208.9 282.017 1204.86 280.037L1152.97 254.554L1152.11 256.308C1149.27 262.093 1148.68 267.644 1150.35 272.96C1152.11 278.247 1155.79 282.267 1161.4 285.022C1165.67 287.117 1169.77 288.223 1173.7 288.34C1177.72 288.428 1182.31 287.565 1187.48 285.752C1191.75 284.44 1195.64 284.645 1199.15 286.367C1202.42 287.974 1204.68 290.316 1205.92 293.393C1207.25 296.441 1207.1 299.63 1205.47 302.961C1204.29 305.357 1202.44 307.35 1199.92 308.941C1194.01 313.001 1186.64 314.86 1177.82 314.515C1169.02 314.113 1159.86 311.573 1150.33 306.895ZM1162.1 237.063L1196.82 254.108C1199.11 248.851 1199.44 243.899 1197.8 239.252C1196.17 234.605 1192.9 231.076 1187.99 228.666C1183.19 226.313 1178.39 225.911 1173.57 227.459C1168.8 229.037 1164.98 232.238 1162.1 237.063Z" fill="#FF3366"/>
<path d="M1227.94 347.583C1223.41 344.891 1220.55 341.415 1219.37 337.156C1218.25 332.929 1219.18 328.297 1222.17 323.258L1278.05 229.122C1281.04 224.084 1284.66 221.046 1288.91 220.01C1293.21 219.007 1297.63 219.852 1302.17 222.544C1306.65 225.202 1309.45 228.645 1310.58 232.871C1311.76 237.131 1310.85 241.78 1307.86 246.818L1251.98 340.955C1248.99 345.993 1245.34 349.014 1241.04 350.017C1236.79 351.053 1232.42 350.242 1227.94 347.583Z" fill="#FF3366"/>
</svg>
